<?xml version="1.0" encoding="UTF-8" standalone="no"?>
<svg
   xmlns:dc="http://purl.org/dc/elements/1.1/"
   xmlns:cc="http://creativecommons.org/ns#"
   xmlns:rdf="http://www.w3.org/1999/02/22-rdf-syntax-ns#"
   xmlns:svg="http://www.w3.org/2000/svg"
   xmlns="http://www.w3.org/2000/svg"
   xmlns:sodipodi="http://sodipodi.sourceforge.net/DTD/sodipodi-0.dtd"
   xmlns:inkscape="http://www.inkscape.org/namespaces/inkscape"
   inkscape:version="1.0 (4035a4fb49, 2020-05-01)"
   sodipodi:docname="bme_bmp280_schematic.svg"
   xml:space="preserve"
   enable-background="new 0 0 28.35 35.43"
   id="Layer_1"
   viewBox="0 0 28.35 35.43"
   height="0.492083in"
   gorn="0"
   y="0px"
   version="1.1"
   x="0px"
   width="0.39375in"><metadata
   id="metadata143"><rdf:RDF><cc:Work
       rdf:about=""><dc:format>image/svg+xml</dc:format><dc:type
         rdf:resource="http://purl.org/dc/dcmitype/StillImage" /></cc:Work></rdf:RDF></metadata><defs
   id="defs141" /><sodipodi:namedview
   inkscape:current-layer="pin_numbers"
   inkscape:window-maximized="1"
   inkscape:window-y="-8"
   inkscape:window-x="-8"
   inkscape:cy="21.396928"
   inkscape:cx="18.900001"
   inkscape:zoom="17.993238"
   showgrid="false"
   id="namedview139"
   inkscape:window-height="1057"
   inkscape:window-width="1920"
   inkscape:pageshadow="2"
   inkscape:pageopacity="0"
   guidetolerance="10"
   gridtolerance="10"
   objecttolerance="10"
   borderopacity="1"
   bordercolor="#666666"
   pagecolor="#ffffff"
   inkscape:document-rotation="0" />
    <desc
   id="desc2">
        <referenceFile>BMP180_SCHEMATIC_v2.svg</referenceFile>
    </desc>
    <g
   id="schematic"
   gorn="0.2">
        <rect
   stroke-width="0.9002"
   stroke-linecap="round"
   id="part_symbol"
   stroke="#010101"
   height="28.059"
   gorn="0.2.0"
   fill="#FFFFFF"
   y="3.685"
   x="3.653"
   width="21.042" />
        <g
   id="pins"
   gorn="0.2.1">
            <g
   id="g7">
                <line
   x2="14.176"
   x1="14.176"
   y2="35.252"
   stroke-width="0.7"
   y1="31.744"
   id="connector6pin"
   stroke-linecap="round"
   stroke-linejoin="round"
   stroke="#565656"
   gorn="0.2.1.0.0"
   fill="none" />
                <rect
   stroke-width="0"
   id="connector6terminal"
   stroke="none"
   height="0.00841600000000001"
   gorn="0.2.1.0.1"
   fill="none"
   y="35.59779200000001"
   x="14.1753"
   width="0.001399999999999999" />
            </g>
            <line
   x2="3.653"
   x1="0.146"
   y2="14.208"
   stroke-width="0.7"
   y1="14.208"
   id="connector9pin"
   stroke-linecap="round"
   stroke-linejoin="round"
   stroke="#565656"
   gorn="0.2.1.1"
   fill="none" />
            <rect
   stroke-width="0"
   id="connector9terminal"
   stroke="none"
   height="0.001399999999999999"
   gorn="0.2.1.2"
   fill="none"
   y="14.2073"
   x="-0.2082070000000001"
   width="0.008414" />
            <g
   id="g13">
                <line
   x2="14.176"
   x1="14.176"
   y2="0.178"
   stroke-width="0.7"
   y1="3.686"
   id="connector5pin"
   stroke-linecap="round"
   stroke-linejoin="round"
   stroke="#565656"
   gorn="0.2.1.3.0"
   fill="none" />
                <rect
   stroke-width="0"
   id="connector5terminal"
   stroke="none"
   height="0.008415999999999998"
   gorn="0.2.1.3.1"
   fill="none"
   y="-0.176208"
   x="14.1753"
   width="0.001399999999999999" />
            </g>
            <g
   id="g18">
                <line
   x2="28.203"
   x1="24.697"
   y2="14.208"
   stroke-width="0.7"
   y1="14.208"
   id="connector10pin"
   stroke-linecap="round"
   stroke-linejoin="round"
   stroke="#565656"
   gorn="0.2.1.4.0"
   fill="none" />
                <rect
   id="rect16"
   stroke-width="0"
   stroke="none"
   height="0.001399999999999999"
   fill="none"
   y="14.2073"
   x="28.548794"
   width="0.008412000000000006" />
            </g>
        </g>
        <g
   id="pin_numbers"
   gorn="0.2.2">
            <g
   id="g31"
   transform="translate(26.219078,13.444678)">
                <g
   id="g29">
                    <g
   id="g27">
                        <g
   id="g25">
                            <g
   id="g23">
                                <text
   id="text21"
   font-size="1.4614px"
   font-family="'Droid Sans'"
   fill="#565656">4</text>
                            </g>
                        </g>
                    </g>
                </g>
            </g>
            <g
   inkscape:transform-center-y="-0.12504706"
   inkscape:transform-center-x="0.33345882"
   id="g43"
   transform="translate(1.3764048,13.586184)">
                <g
   id="g41">
                    <g
   id="g39">
                        <g
   id="g37">
                            <g
   id="g35">
                                <text
   id="text33"
   font-size="1.4614px"
   font-family="'Droid Sans'"
   fill="#565656">3</text>
                            </g>
                        </g>
                    </g>
                </g>
            </g>
            <g
   id="g55"
   transform="translate(14.668719,34.137022)">
                <g
   id="g53">
                    <g
   id="g51">
                        <g
   id="g49">
                            <g
   id="g47">
                                <text
   id="text45"
   font-size="1.4614px"
   font-family="'Droid Sans'"
   fill="#565656">2</text>
                            </g>
                        </g>
                    </g>
                </g>
            </g>
            <g
   id="g67"
   transform="translate(14.860433,2.3362511)">
                <g
   id="g65">
                    <g
   id="g63">
                        <g
   id="g61">
                            <g
   id="g59">
                                <text
   id="text57"
   font-size="1.4614px"
   font-family="'Droid Sans'"
   fill="#565656">1</text>
                            </g>
                        </g>
                    </g>
                </g>
            </g>
        </g>
        <g
   id="pin_labels"
   gorn="0.2.3">
            <g
   id="g80"
   transform="matrix(1 0 0 1 12.1338 30.6172)">
                <g
   id="g78">
                    <g
   id="g76">
                        <g
   id="g74">
                            <g
   id="g72">
                                <text
   id="text70"
   font-size="2.1921"
   font-family="Droid Sans"
   fill="#565656">Gnd</text>
                            </g>
                        </g>
                    </g>
                </g>
            </g>
            <g
   id="g92"
   transform="matrix(1 0 0 1 12.5732 6.2842)">
                <g
   id="g90">
                    <g
   id="g88">
                        <g
   id="g86">
                            <g
   id="g84">
                                <text
   id="text82"
   font-size="2.1921"
   font-family="Droid Sans"
   fill="#565656">Vin</text>
                            </g>
                        </g>
                    </g>
                </g>
            </g>
            <g
   id="g104"
   transform="matrix(1 0 0 1 4.6357 14.7842)">
                <g
   id="g102">
                    <g
   id="g100">
                        <g
   id="g98">
                            <g
   id="g96">
                                <text
   id="text94"
   font-size="2.1921"
   font-family="Droid Sans"
   fill="#565656">SCL</text>
                            </g>
                        </g>
                    </g>
                </g>
            </g>
            <g
   id="g116"
   transform="matrix(1 0 0 1 19.9775 14.7842)">
                <g
   id="g114">
                    <g
   id="g112">
                        <g
   id="g110">
                            <g
   id="g108">
                                <text
   id="text106"
   font-size="2.1921"
   font-family="Droid Sans"
   fill="#565656">SDA</text>
                            </g>
                        </g>
                    </g>
                </g>
            </g>
        </g>
        <g
   id="g135"
   transform="matrix(1 0 0 1 9.4111 19.1729)">
            <g
   id="g133">
                <g
   id="g131">
                    <g
   id="g129">
                        <g
   id="g127">
                            <g
   id="g125"
   enable-background="new    ">
                                <g
   aria-label="BME/BMP280"
   id="text119"
   style="font-size:2.7882px;font-family:'Droid Sans';fill:#010101"><path
     d="m -3.4043483,-1.9904044 h 0.5432089 q 0.1742625,0 0.3063208,0.027229 0.1334197,0.025867 0.2219124,0.08577 0.089854,0.058541 0.1347811,0.1552025 0.044927,0.0953 0.044927,0.2355267 0,0.084408 -0.027228,0.1579254 -0.025867,0.073517 -0.07624,0.1293354 -0.050373,0.055818 -0.1252511,0.093938 -0.073517,0.036758 -0.1674554,0.049011 v 0.013614 q 0.093938,0.016337 0.1756239,0.0476499 0.083047,0.0299514 0.1443111,0.0844084 0.061264,0.0530956 0.096661,0.13478115 0.035397,0.0816855 0.035397,0.19876816 0,0.13614257 -0.044927,0.24369521 -0.043566,0.1061912 -0.127974,0.18106962 -0.083047,0.07351699 -0.2028525,0.11299833 Q -2.5929385,0 -2.7440568,0 h -0.6602915 z m 0.2532252,0.8440839 h 0.3321879 q 0.1143598,0 0.191961,-0.020421 0.077601,-0.020421 0.1252512,-0.059903 0.04765,-0.040843 0.068071,-0.1007455 0.021783,-0.061264 0.021783,-0.1415883 0,-0.1633711 -0.1048298,-0.2341652 -0.1048298,-0.070794 -0.3308264,-0.070794 h -0.303598 z m 0,0.21238245 v 0.71883278 h 0.3621393 q 0.1198054,0 0.2001295,-0.0272285 0.081686,-0.0272285 0.1306969,-0.0762398 0.050373,-0.0490113 0.072156,-0.11708261 0.021783,-0.0694327 0.021783,-0.15247969 0,-0.0762398 -0.023144,-0.14022685 -0.021783,-0.063987 -0.073517,-0.10891406 -0.050373,-0.0462885 -0.1347812,-0.0707941 -0.084408,-0.0258671 -0.2096595,-0.0258671 z"
     style="font-size:2.7882px;font-family:'Droid Sans';fill:#010101"
     id="path903" /><path
     d="M -0.85031356,0 -1.4534252,-1.7426249 h -0.010891 q 0.00817,0.1007455 0.013614,0.2001295 0.00545,0.08577 0.00817,0.1810697 0.00408,0.093938 0.00408,0.1715396 V 0 h -0.2341652 v -1.9904044 h 0.3757535 l 0.5609074,1.62281945 h 0.008169 l 0.56363026,-1.62281945 h 0.3757535 V 0 h -0.25322519 v -1.2075846 q 0,-0.070794 0.0027228,-0.1620097 0.0027228,-0.091216 0.0068071,-0.1742625 0.0054457,-0.096661 0.00953,-0.1960453 h -0.0108914 L -0.64201543,0 Z"
     style="font-size:2.7882px;font-family:'Droid Sans';fill:#010101"
     id="path905" /><path
     d="M 1.7894906,0 H 0.75616847 V -1.9904044 H 1.7894906 v 0.2232738 H 1.0093937 v 0.6153644 h 0.7283627 v 0.220551 H 1.0093937 v 0.70794138 h 0.7800969 z"
     style="font-size:2.7882px;font-family:'Droid Sans';fill:#010101"
     id="path907" /><path
     d="M 2.9671238,-1.9904044 2.2265082,0 H 1.982813 l 0.7419771,-1.9904044 z"
     style="font-size:2.7882px;font-family:'Droid Sans';fill:#010101"
     id="path909" /><path
     d="m 3.2666379,-1.9904044 h 0.5432089 q 0.1742625,0 0.3063208,0.027229 0.1334197,0.025867 0.2219124,0.08577 0.089854,0.058541 0.1347811,0.1552025 0.044927,0.0953 0.044927,0.2355267 0,0.084408 -0.027229,0.1579254 -0.025867,0.073517 -0.07624,0.1293354 -0.050373,0.055818 -0.1252512,0.093938 -0.073517,0.036758 -0.1674553,0.049011 v 0.013614 q 0.093938,0.016337 0.1756239,0.0476499 0.083047,0.0299514 0.1443111,0.0844084 0.061264,0.0530956 0.096661,0.13478115 0.035397,0.0816855 0.035397,0.19876816 0,0.13614257 -0.044927,0.24369521 -0.043566,0.1061912 -0.1279741,0.18106962 -0.083047,0.07351699 -0.2028524,0.11299833 Q 4.0780476,0 3.9269294,0 H 3.2666379 Z m 0.2532252,0.8440839 H 3.852051 q 0.1143597,0 0.191961,-0.020421 0.077601,-0.020421 0.1252512,-0.059903 0.04765,-0.040843 0.068071,-0.1007455 0.021783,-0.061264 0.021783,-0.1415883 0,-0.1633711 -0.1048298,-0.2341652 -0.1048298,-0.070794 -0.3308265,-0.070794 H 3.5198631 Z m 0,0.21238245 v 0.71883278 h 0.3621392 q 0.1198055,0 0.2001296,-0.0272285 0.081686,-0.0272285 0.1306969,-0.0762398 0.050373,-0.0490113 0.072156,-0.11708261 0.021783,-0.0694327 0.021783,-0.15247969 0,-0.0762398 -0.023144,-0.14022685 -0.021783,-0.063987 -0.073517,-0.10891406 -0.050373,-0.0462885 -0.1347811,-0.0707941 -0.084408,-0.0258671 -0.2096596,-0.0258671 z"
     style="font-size:2.7882px;font-family:'Droid Sans';fill:#010101"
     id="path911" /><path
     d="M 5.8206724,0 5.2175608,-1.7426249 h -0.010891 q 0.00817,0.1007455 0.013614,0.2001295 0.00545,0.08577 0.00817,0.1810697 0.00408,0.093938 0.00408,0.1715396 V 0 H 4.9983712 v -1.9904044 h 0.3757535 l 0.5609074,1.62281945 h 0.00817 L 6.5068309,-1.9904044 H 6.8825844 V 0 H 6.6293593 v -1.2075846 q 0,-0.070794 0.00272,-0.1620097 0.00272,-0.091216 0.00681,-0.1742625 0.00545,-0.096661 0.00953,-0.1960453 H 6.6375278 L 6.0289705,0 Z"
     style="font-size:2.7882px;font-family:'Droid Sans';fill:#010101"
     id="path913" /><path
     d="m 8.6197636,-1.4077142 q 0,0.1238897 -0.03812,0.2382495 -0.036759,0.1143598 -0.1225283,0.20285243 -0.08577,0.0871313 -0.2273581,0.14022685 -0.1402269,0.0517342 -0.3471636,0.0517342 H 7.6803798 V 0 H 7.4271546 v -1.9904044 h 0.4928362 q 0.182431,0 0.3144893,0.039481 0.1320583,0.03812 0.2178281,0.1129984 0.08577,0.073517 0.1266126,0.182431 0.040843,0.1089141 0.040843,0.2477795 z m -0.9393838,0.41795769 h 0.175624 q 0.1266125,0 0.2205509,-0.0217828 0.0953,-0.021783 0.156564,-0.069433 0.062626,-0.049011 0.093938,-0.1252512 0.031313,-0.077601 0.031313,-0.1878768 0,-0.1933224 -0.1116369,-0.2858994 Q 8.135096,-1.7739377 7.898208,-1.7739377 H 7.6803798 Z"
     style="font-size:2.7882px;font-family:'Droid Sans';fill:#010101"
     id="path915" /><path
     d="M 10.135031,0 H 8.8934103 v -0.21238241 l 0.476499,-0.51870321 q 0.1021069,-0.11027548 0.1824311,-0.20149101 0.080324,-0.0912156 0.1361425,-0.17834677 0.05718,-0.087131 0.087131,-0.1742625 0.029951,-0.088493 0.029951,-0.191961 0,-0.080324 -0.023144,-0.1415883 -0.023144,-0.061264 -0.06671,-0.1034684 -0.042204,-0.043566 -0.1007455,-0.065348 -0.058541,-0.021783 -0.1306968,-0.021783 -0.1293355,0 -0.2341653,0.053096 -0.1034683,0.051734 -0.1974067,0.1334197 L 8.9138317,-1.7848291 q 0.054457,-0.049011 0.1170826,-0.091216 0.062626,-0.043566 0.1347811,-0.074878 0.072156,-0.031313 0.1524797,-0.049011 0.080324,-0.01906 0.1688168,-0.01906 0.1306969,0 0.2355267,0.036758 0.1061912,0.036759 0.1797082,0.1061912 0.073517,0.068071 0.1129982,0.1674554 0.04084,0.098023 0.04084,0.2219124 0,0.1157212 -0.03676,0.220551 -0.035397,0.1048297 -0.099384,0.2069367 -0.062626,0.10074548 -0.1511183,0.20285241 -0.087131,0.10210693 -0.1892381,0.21238242 l -0.3825607,0.40706629 v 0.0108914 h 0.9380228 z"
     style="font-size:2.7882px;font-family:'Droid Sans';fill:#010101"
     id="path917" /><path
     d="m 11.067607,-2.0217172 q 0.11436,0 0.215106,0.029951 0.102107,0.029951 0.178346,0.089854 0.0776,0.059903 0.122529,0.1497568 0.04493,0.089854 0.04493,0.2096595 0,0.091216 -0.02723,0.1647326 -0.02723,0.073517 -0.07488,0.1334197 -0.04765,0.058541 -0.112998,0.1061912 -0.06535,0.046288 -0.141589,0.084408 0.07896,0.042204 0.153841,0.0939384 0.07624,0.0517342 0.134781,0.11708261 0.0599,0.063987 0.0953,0.14431113 0.03676,0.0803241 0.03676,0.1797082 0,0.12525116 -0.04629,0.22735809 -0.04493,0.10074551 -0.127974,0.17153965 -0.08169,0.07079413 -0.197406,0.10891405 -0.11436,0.03811992 -0.253226,0.03811992 -0.149756,0 -0.266839,-0.03675849 -0.115721,-0.03675849 -0.196045,-0.10482978 -0.07896,-0.0694327 -0.121167,-0.16881679 -0.04084,-0.0993841 -0.04084,-0.22463525 0,-0.10210693 0.02995,-0.18379247 0.03131,-0.0816855 0.08305,-0.14703398 0.05173,-0.0653484 0.122529,-0.11572119 0.07079,-0.0503728 0.149756,-0.0884927 -0.06671,-0.042204 -0.125251,-0.091216 -0.05854,-0.050373 -0.102107,-0.1116369 -0.0422,-0.061264 -0.06807,-0.1347812 -0.02451,-0.074878 -0.02451,-0.1647325 0,-0.118444 0.04493,-0.2069367 0.04629,-0.089854 0.12389,-0.1497568 0.0776,-0.059903 0.178347,-0.089854 0.102107,-0.029951 0.212382,-0.029951 z m -0.381199,1.51662825 q 0,0.0721556 0.02178,0.13341972 0.02178,0.0599027 0.06807,0.10346836 0.04629,0.0422042 0.117083,0.0667099 0.07079,0.0231442 0.168817,0.0231442 0.0953,0 0.167455,-0.0231442 0.07352,-0.0245057 0.122528,-0.0680713 0.04901,-0.044927 0.07352,-0.10755263 0.02451,-0.0626256 0.02451,-0.13886542 0,-0.0707941 -0.02723,-0.12797402 -0.02587,-0.0571799 -0.07624,-0.10619121 -0.04901,-0.0490113 -0.118444,-0.0925769 -0.06943,-0.0435656 -0.155203,-0.0857698 l -0.04084,-0.01906 q -0.171539,0.0816855 -0.258671,0.18787675 -0.08713,0.10482978 -0.08713,0.25458661 z m 0.378477,-1.30969155 q -0.144312,0 -0.230081,0.072156 -0.08441,0.072156 -0.08441,0.2096595 0,0.077601 0.02314,0.1334197 0.02451,0.055818 0.06671,0.099384 0.0422,0.043566 0.100746,0.078963 0.0599,0.034036 0.129335,0.06671 0.06535,-0.029951 0.122529,-0.065348 0.05854,-0.035397 0.100745,-0.080324 0.04357,-0.044927 0.06807,-0.1021069 0.02451,-0.05718 0.02451,-0.1306969 0,-0.137504 -0.08577,-0.2096595 -0.08577,-0.072156 -0.235526,-0.072156 z"
     style="font-size:2.7882px;font-family:'Droid Sans';fill:#010101"
     id="path919" /><path
     d="m 13.239082,-0.99792506 q 0,0.24097235 -0.0354,0.43157195 -0.03404,0.19059961 -0.111637,0.3226579 -0.07624,0.1320583 -0.197407,0.20149101 -0.121167,0.06943271 -0.294068,0.06943271 -0.160648,0 -0.280454,-0.06943271 -0.118444,-0.06943271 -0.197407,-0.20149101 -0.0776,-0.13205829 -0.117082,-0.3226579 -0.03812,-0.1905996 -0.03812,-0.43157195 0,-0.24097234 0.03404,-0.43157194 0.0354,-0.1905996 0.110275,-0.3212965 0.07624,-0.1320583 0.196045,-0.201491 0.121167,-0.069433 0.292707,-0.069433 0.16201,0 0.281815,0.069433 0.119806,0.068071 0.198768,0.2001296 0.07896,0.1306969 0.118444,0.3212965 0.03948,0.1905996 0.03948,0.43293334 z m -1.019708,0 q 0,0.20421386 0.02042,0.35669354 0.02042,0.15247968 0.06535,0.25458661 0.04493,0.10074551 0.117082,0.15247968 0.07352,0.0503728 0.178347,0.0503728 0.10483,0 0.178347,-0.0503728 0.07352,-0.0503728 0.119805,-0.15111825 0.04765,-0.10074551 0.06807,-0.25322519 0.02178,-0.15384111 0.02178,-0.35941639 0,-0.20421384 -0.02178,-0.35669354 -0.02042,-0.1524797 -0.06807,-0.2532252 -0.04629,-0.1007455 -0.119805,-0.1511182 -0.07352,-0.050373 -0.178347,-0.050373 -0.10483,0 -0.178347,0.050373 -0.07216,0.050373 -0.117082,0.1511182 -0.04493,0.1007455 -0.06535,0.2532252 -0.02042,0.1524797 -0.02042,0.35669354 z"
     style="font-size:2.7882px;font-family:'Droid Sans';fill:#010101"
     id="path921" /></g>
                                <text
   id="text121"
   font-size="2.7882"
   font-family="Droid Sans"
   fill="#010101"
   y="3.346"
   x="-1.362">Barometer</text>
                                <text
   id="text123"
   font-size="2.7882"
   font-family="Droid Sans"
   fill="#010101"
   y="6.691"
   x="-0.762">Breakout </text>
                            </g>
                        </g>
                    </g>
                </g>
            </g>
        </g>
    </g>
</svg>
