<?xml version="1.0" encoding="UTF-8" standalone="no"?>
<svg
   xmlns:dc="http://purl.org/dc/elements/1.1/"
   xmlns:cc="http://creativecommons.org/ns#"
   xmlns:rdf="http://www.w3.org/1999/02/22-rdf-syntax-ns#"
   xmlns:svg="http://www.w3.org/2000/svg"
   xmlns="http://www.w3.org/2000/svg"
   xmlns:sodipodi="http://sodipodi.sourceforge.net/DTD/sodipodi-0.dtd"
   xmlns:inkscape="http://www.inkscape.org/namespaces/inkscape"
   width="11mm"
   height="13mm"
   viewBox="0 0 11 13"
   version="1.1"
   id="svg883"
   inkscape:version="1.0 (4035a4fb49, 2020-05-01)"
   sodipodi:docname="BMP280.svg">
  <defs
     id="defs877" />
  <sodipodi:namedview
     inkscape:snap-object-midpoints="true"
     id="base"
     pagecolor="#ffffff"
     bordercolor="#666666"
     borderopacity="1.0"
     inkscape:pageopacity="0.0"
     inkscape:pageshadow="2"
     inkscape:zoom="11.313708"
     inkscape:cx="20.620713"
     inkscape:cy="35.59198"
     inkscape:document-units="mm"
     inkscape:current-layer="layer1"
     inkscape:document-rotation="0"
     showgrid="false"
     inkscape:window-width="1296"
     inkscape:window-height="1041"
     inkscape:window-x="1998"
     inkscape:window-y="40"
     inkscape:window-maximized="0"
     inkscape:snap-intersection-paths="false" />
  <metadata
     id="metadata880">
    <rdf:RDF>
      <cc:Work
         rdf:about="">
        <dc:format>image/svg+xml</dc:format>
        <dc:type
           rdf:resource="http://purl.org/dc/dcmitype/StillImage" />
        <dc:title />
      </cc:Work>
    </rdf:RDF>
  </metadata>
  <g
     inkscape:label="Ebene 1"
     inkscape:groupmode="layer"
     id="layer1"
     transform="translate(-54.42857,-43.089287)">
    <path
       transform="matrix(0.26458333,0,0,0.26458333,54.42857,43.089287)"
       d="M 3.7792969 0 C 1.6854386 0 2.3684758e-15 1.6854386 0 3.7792969 L 0 45.353516 C 0 47.447374 1.6854386 49.134766 3.7792969 49.134766 L 37.794922 49.134766 C 39.88878 49.134766 41.574219 47.447374 41.574219 45.353516 L 41.574219 3.7792969 C 41.574219 1.6854386 39.88878 2.3684758e-15 37.794922 0 L 3.7792969 0 z M 10.464844 2.078125 A 8.5039366 8.5039366 0 0 1 10.466797 2.078125 A 8.5039366 8.5039366 0 0 1 10.582031 2.078125 A 8.5039366 8.5039366 0 0 1 19.087891 10.582031 A 8.5039366 8.5039366 0 0 1 10.582031 19.085938 A 8.5039366 8.5039366 0 0 1 2.078125 10.582031 A 8.5039366 8.5039366 0 0 1 10.464844 2.078125 z M 6.2851562 41.384766 A 2.8346457 2.8346457 0 0 1 6.3496094 41.384766 A 2.8346457 2.8346457 0 0 1 9.1835938 44.220703 A 2.8346457 2.8346457 0 0 1 6.3496094 47.054688 A 2.8346457 2.8346457 0 0 1 3.515625 44.220703 A 2.8346457 2.8346457 0 0 1 6.2851562 41.384766 z M 15.884766 41.384766 A 2.8346457 2.8346457 0 0 1 15.949219 41.384766 A 2.8346457 2.8346457 0 0 1 18.783203 44.220703 A 2.8346457 2.8346457 0 0 1 15.949219 47.054688 A 2.8346457 2.8346457 0 0 1 13.115234 44.220703 A 2.8346457 2.8346457 0 0 1 15.884766 41.384766 z M 25.548828 41.384766 A 2.8346457 2.8346457 0 0 1 28.384766 44.220703 A 2.8346457 2.8346457 0 0 1 25.548828 47.054688 A 2.8346457 2.8346457 0 0 1 22.714844 44.220703 A 2.8346457 2.8346457 0 0 1 25.548828 41.384766 z M 35.083984 41.384766 A 2.8346457 2.8346457 0 0 1 35.148438 41.384766 A 2.8346457 2.8346457 0 0 1 37.984375 44.220703 A 2.8346457 2.8346457 0 0 1 35.148438 47.054688 A 2.8346457 2.8346457 0 0 1 32.314453 44.220703 A 2.8346457 2.8346457 0 0 1 35.083984 41.384766 z "
       style="fill:#800080;stroke-width:0.999999"
       id="rect1448" />
    <path
       transform="matrix(0.26458333,0,0,0.26458333,54.42857,43.089287)"
       d="M 10.474609 1.1347656 A 9.4488189 9.4488189 0 0 0 1.1347656 10.582031 A 9.4488189 9.4488189 0 0 0 10.582031 20.03125 A 9.4488189 9.4488189 0 0 0 20.03125 10.582031 A 9.4488189 9.4488189 0 0 0 10.582031 1.1347656 A 9.4488189 9.4488189 0 0 0 10.474609 1.1347656 z M 10.582031 2.078125 A 8.503937 8.503937 0 0 1 19.085938 10.582031 A 8.503937 8.503937 0 0 1 10.582031 19.085938 A 8.503937 8.503937 0 0 1 2.078125 10.582031 A 8.503937 8.503937 0 0 1 10.582031 2.078125 z "
       style="fill:#e6ab00;fill-opacity:1;stroke-width:1.71747"
       id="path839" />
    <path
       inkscape:connector-curvature="0"
       id="path3988"
       d="m 62.72826,54.789226 a 1,1 0 0 0 1.000456,0.999939 1,1 0 0 0 0.999939,-0.999939 1,1 0 0 0 -0.999939,-0.999939 1,1 0 0 0 -1.000456,0.999939 z m 0.250114,0 a 0.75000001,0.75000001 0 0 1 0.750342,-0.749825 0.75000001,0.75000001 0 0 1 0.749825,0.749825 0.75000001,0.75000001 0 0 1 -0.749825,0.750341 0.75000001,0.75000001 0 0 1 -0.750342,-0.750341 z"
       style="fill:#e6ab00;fill-opacity:1;stroke-width:0.264583" />
    <path
       inkscape:connector-curvature="0"
       id="path3988-3"
       d="m 60.188363,54.789226 a 1,1 0 0 0 0.999939,0.999939 1,1 0 0 0 1.000456,-0.999939 1,1 0 0 0 -1.000456,-0.999939 1,1 0 0 0 -0.999939,0.999939 z m 0.250114,0 a 0.75000001,0.75000001 0 0 1 0.749825,-0.749825 0.75000001,0.75000001 0 0 1 0.750342,0.749825 0.75000001,0.75000001 0 0 1 -0.750342,0.750341 0.75000001,0.75000001 0 0 1 -0.749825,-0.750341 z"
       style="fill:#e6ab00;fill-opacity:1;stroke-width:0.264583" />
    <path
       inkscape:connector-curvature="0"
       id="path3988-3-6"
       d="m 57.648467,54.789226 a 1,1 0 0 0 0.999939,0.999939 1,1 0 0 0 0.999939,-0.999939 1,1 0 0 0 -0.999939,-0.999939 1,1 0 0 0 -0.999939,0.999939 z m 0.250114,0 a 0.75000001,0.75000001 0 0 1 0.749825,-0.749825 0.75000001,0.75000001 0 0 1 0.750341,0.749825 0.75000001,0.75000001 0 0 1 -0.750341,0.750341 0.75000001,0.75000001 0 0 1 -0.749825,-0.750341 z"
       style="fill:#e6ab00;fill-opacity:1;stroke-width:0.264583" />
    <path
       inkscape:connector-curvature="0"
       id="path3988-3-6-7"
       d="m 55.10857,54.789226 a 1,1 0 0 0 0.999939,0.999939 1,1 0 0 0 0.999939,-0.999939 1,1 0 0 0 -0.999939,-0.999939 1,1 0 0 0 -0.999939,0.999939 z m 0.250114,0 a 0.75000001,0.75000001 0 0 1 0.749825,-0.749825 0.75000001,0.75000001 0 0 1 0.749825,0.749825 0.75000001,0.75000001 0 0 1 -0.749825,0.750341 0.75000001,0.75000001 0 0 1 -0.749825,-0.750341 z"
       style="fill:#e6ab00;fill-opacity:1;stroke-width:0.264583" />
    <g
       id="g1156"
       transform="matrix(0,-0.2,0.2,0,53.028067,54.995019)">
      <rect
         style="fill:#808080"
         id="middle"
         x="39.448658"
         y="45.264515"
         width="10.08"
         height="6.8579998"
         stroke-width="0.191247"
         fill="#303030" />
      <rect
         style="fill:#4d4d4d"
         id="top"
         x="39.448658"
         y="45.264515"
         width="10.08"
         height="0.62484002"
         stroke-width="0.191247"
         fill="#3d3d3d" />
      <rect
         style="fill:#4d4d4d"
         id="bottom"
         x="39.448658"
         y="51.487514"
         width="10.08"
         height="0.62484002"
         stroke-width="0.191247"
         fill="#000000" />
      <polygon
         style="fill:#333333"
         transform="matrix(0.0254,0,0,0.0254,31.74857,44.502514)"
         id="right"
         points="692.5,54.6 692.5,275.4 700,300 700,30 "
         fill="#141414" />
      <polygon
         style="fill:#666666"
         transform="matrix(0.0254,0,0,0.0254,39.448657,44.502514)"
         id="left"
         points="0,30 7.5,54 7.5,275 0,300 "
         fill="#1f1f1f" />
      <circle
         style="fill:#cccccc"
         cx="40.718658"
         cy="48.693516"
         r="0.52324003"
         id="circle13"
         stroke-width="0.254"
         fill="#212121" />
      <g
         style="font-size:1.05833px;font-family:OCRA;text-anchor:middle;fill:#e6e6e6;stroke-width:0.0254"
         id="label"
         transform="rotate(90)"
         aria-label="BME280">
        <path
           id="path952"
           style="font-size:1.05833px;font-family:OCRA;text-anchor:middle;fill:#e6e6e6;stroke-width:0.0254"
           d="m 46.386127,-44.135216 v -0.825497 h 0.313266 q 0.08678,0 0.150283,0.0635 0.0635,0.0635 0.0635,0.150282 v 0.03916 q 0,0.09419 -0.07408,0.159808 0.07408,0.06562 0.07408,0.159807 v 0.03916 q 0,0.08678 -0.0635,0.150282 -0.0635,0.0635 -0.150283,0.0635 z m 0.106892,-0.106891 h 0.206374 q 0.04339,0 0.07514,-0.03175 0.03175,-0.03281 0.03175,-0.07514 v -0.03916 q 0,-0.04339 -0.03175,-0.07514 -0.03175,-0.03175 -0.07514,-0.03175 h -0.206374 z m 0,-0.359832 h 0.206374 q 0.04339,0 0.07514,-0.03175 0.03175,-0.03175 0.03175,-0.07408 v -0.03916 q 0,-0.04233 -0.03175,-0.07408 -0.03175,-0.03281 -0.07514,-0.03281 h -0.206374 z" />
        <path
           id="path954"
           style="font-size:1.05833px;font-family:OCRA;text-anchor:middle;fill:#e6e6e6;stroke-width:0.0254"
           d="m 47.150936,-44.189191 v -0.771522 h 0.13335 l 0.130174,0.185208 0.129117,-0.185208 h 0.134408 v 0.771522 q 0,0.02222 -0.01588,0.0381 -0.01588,0.01588 -0.0381,0.01588 -0.02222,0 -0.0381,-0.01588 -0.01482,-0.01588 -0.01482,-0.0381 v -0.624414 l -0.103716,0.148166 v 0.02752 q 0,0.02222 -0.01588,0.0381 -0.01588,0.01588 -0.03704,0.01588 -0.02222,0 -0.0381,-0.01588 -0.01588,-0.01588 -0.01588,-0.0381 v -0.02752 l -0.102658,-0.14605 v 0.622298 q 0,0.02222 -0.01588,0.0381 -0.01588,0.01588 -0.0381,0.01588 -0.02222,0 -0.0381,-0.01588 -0.01482,-0.01588 -0.01482,-0.0381 z" />
        <path
           id="path956"
           style="font-size:1.05833px;font-family:OCRA;text-anchor:middle;fill:#e6e6e6;stroke-width:0.0254"
           d="m 47.915745,-44.135216 v -0.825497 h 0.473074 q 0.02222,0 0.0381,0.01588 0.01588,0.01587 0.01588,0.03704 0,0.02222 -0.01588,0.0381 -0.01588,0.01588 -0.0381,0.01588 h -0.366183 v 0.251883 h 0.156633 q 0.02117,0 0.03704,0.01588 0.01588,0.01588 0.01588,0.0381 0,0.02222 -0.01588,0.0381 -0.01587,0.01482 -0.03704,0.01482 h -0.156633 v 0.252941 h 0.366183 q 0.02222,0 0.0381,0.01587 0.01588,0.01588 0.01588,0.03704 0,0.02222 -0.01588,0.0381 -0.01588,0.01588 -0.0381,0.01588 z" />
        <path
           id="path958"
           style="font-size:1.05833px;font-family:OCRA;text-anchor:middle;fill:#e6e6e6;stroke-width:0.0254"
           d="m 48.680554,-44.135216 v -0.359832 q 0,-0.04339 0.03175,-0.07408 0.03175,-0.03175 0.07514,-0.03175 h 0.313266 v -0.252941 H 48.73347 q -0.02222,0 -0.0381,-0.01588 -0.01482,-0.01588 -0.01482,-0.0381 0,-0.02117 0.01482,-0.03704 0.01587,-0.01588 0.0381,-0.01588 h 0.367241 q 0.04233,0 0.07408,0.03175 0.03281,0.03175 0.03281,0.07514 v 0.252941 q 0,0.04233 -0.03175,0.07408 -0.03175,0.03175 -0.07514,0.03175 h -0.313266 v 0.252941 h 0.366182 q 0.02222,0 0.0381,0.01587 0.01588,0.01588 0.01588,0.03704 0,0.02222 -0.01588,0.0381 -0.01588,0.01588 -0.0381,0.01588 z" />
        <path
           id="path960"
           style="font-size:1.05833px;font-family:OCRA;text-anchor:middle;fill:#e6e6e6;stroke-width:0.0254"
           d="m 49.445363,-44.242107 v -0.252941 q 0,-0.04339 0.03069,-0.07514 0.03175,-0.03175 0.07514,-0.03175 v -0.305858 q 0,-0.02222 0.01482,-0.03704 0.01482,-0.01588 0.03704,-0.01588 h 0.210608 q 0.02222,0 0.03704,0.01588 0.01482,0.01482 0.01482,0.03704 v 0.305858 q 0.04233,0 0.07408,0.03281 0.03281,0.03175 0.03281,0.07408 v 0.252941 q 0,0.04339 -0.03281,0.07514 -0.03175,0.03175 -0.07408,0.03175 h -0.314324 q -0.04339,0 -0.07514,-0.03175 -0.03069,-0.03175 -0.03069,-0.07514 z m 0.105833,0 h 0.314324 v -0.252941 h -0.314324 z m 0.105833,-0.359832 h 0.102658 v -0.251883 h -0.102658 z" />
        <path
           id="path962"
           style="font-size:1.05833px;font-family:OCRA;text-anchor:middle;fill:#e6e6e6;stroke-width:0.0254"
           d="m 50.210172,-44.242107 v -0.611715 q 0,-0.04339 0.03175,-0.07514 0.03175,-0.03175 0.07514,-0.03175 h 0.313266 q 0.04233,0 0.07408,0.03175 0.03281,0.03175 0.03281,0.07514 v 0.611715 q 0,0.04339 -0.03281,0.07514 -0.03175,0.03175 -0.07408,0.03175 h -0.313266 q -0.04339,0 -0.07514,-0.03175 -0.03175,-0.03175 -0.03175,-0.07514 z m 0.106891,0 h 0.313266 v -0.611715 h -0.313266 z" />
      </g>
      <rect
         id="connector0pin"
         x="40.337658"
         y="51.766914"
         width="0.76200002"
         height="1.0922"
         stroke-width="0.254"
         fill="#8c8c8c" />
      <rect
         id="connector0terminal"
         x="40.337658"
         y="52.122513"
         width="0.76200002"
         height="0.76200002"
         stroke-width="0.254"
         fill="#8c8c8c" />
      <polygon
         transform="matrix(0.0254,0,0,0.0254,39.448657,44.502514)"
         points="85,297 85,286 35,286 35,306 65,306 "
         id="polygon18"
         fill="#8c8c8c" />
      <rect
         y="44.502514"
         id="connector13pin"
         x="40.337658"
         width="0.76200002"
         height="1.0922"
         stroke-width="0.254"
         fill="#8c8c8c" />
      <rect
         y="44.502514"
         id="connector13terminal"
         x="40.337658"
         width="0.76200002"
         height="0.76200002"
         stroke-width="0.254"
         fill="#8c8c8c" />
      <polygon
         transform="matrix(0.0254,0,0,0.0254,39.448657,44.502514)"
         points="35,23 35,43 85,43 85,32 65,23 "
         id="polygon22"
         fill="#8c8c8c" />
      <rect
         id="connector6terminal"
         x="47.877605"
         y="52.122513"
         width="0.76200002"
         height="0.76200002"
         stroke-width="0.254"
         fill="#8c8c8c" />
      <polygon
         transform="matrix(0.0254,0,0,0.0254,31.74857,44.502514)"
         points="665,306 665,286 615,286 615,297 635,306 "
         id="polygon26"
         fill="#8c8c8c" />
      <rect
         id="connector7terminal"
         x="47.877605"
         y="44.502514"
         width="0.76200002"
         height="0.76200002"
         stroke-width="0.254"
         fill="#8c8c8c" />
      <polygon
         transform="matrix(0.0254,0,0,0.0254,31.74857,44.502514)"
         points="615,32 615,43 665,43 665,23 635,23 "
         id="polygon30"
         fill="#8c8c8c" />
      <rect
         id="connector12pin"
         x="42.877659"
         y="44.502514"
         width="0.76200002"
         height="1.0922"
         stroke-width="0.254"
         fill="#8c8c8c" />
      <rect
         y="44.502514"
         id="connector12terminal"
         x="42.877659"
         width="0.76200002"
         height="0.76200002"
         stroke-width="0.254"
         fill="#8c8c8c" />
      <polygon
         transform="matrix(0.0254,0,0,0.0254,39.448657,44.502514)"
         points="115,32 115,43 185,43 185,32 165,23 135,23 "
         id="polygon34"
         fill="#8c8c8c" />
      <rect
         id="connector11pin"
         x="45.417656"
         y="44.502514"
         width="0.76200002"
         height="1.0922"
         stroke-width="0.254"
         fill="#8c8c8c" />
      <rect
         y="44.502514"
         id="connector11terminal"
         x="45.417656"
         width="0.76200002"
         height="0.76200002"
         stroke-width="0.254"
         fill="#8c8c8c" />
      <polygon
         transform="matrix(0.0254,0,0,0.0254,39.448657,44.502514)"
         points="215,32 215,43 285,43 285,32 265,23 235,23 "
         id="polygon38"
         fill="#8c8c8c" />
      <rect
         id="connector1pin"
         x="42.877659"
         y="51.766914"
         width="0.76200002"
         height="1.0922"
         stroke-width="0.254"
         fill="#8c8c8c" />
      <rect
         id="connector1terminal"
         x="42.877659"
         y="52.122513"
         width="0.76200002"
         height="0.76200002"
         stroke-width="0.254"
         fill="#8c8c8c" />
      <polygon
         transform="matrix(0.0254,0,0,0.0254,39.448657,44.502514)"
         points="185,297 185,286 115,286 115,297 135,306 165,306 "
         id="polygon54"
         fill="#8c8c8c" />
      <rect
         id="connector2pin"
         x="45.417656"
         y="51.766914"
         width="0.76200002"
         height="1.0922"
         stroke-width="0.254"
         fill="#8c8c8c" />
      <rect
         id="connector2terminal"
         x="45.417656"
         y="52.122513"
         width="0.76200002"
         height="0.76200002"
         stroke-width="0.254"
         fill="#8c8c8c" />
      <polygon
         transform="matrix(0.0254,0,0,0.0254,39.448657,44.502514)"
         points="285,297 285,286 215,286 215,297 235,306 265,306 "
         id="polygon58"
         fill="#8c8c8c" />
    </g>
    <rect
       style="fill:#999999;fill-opacity:1;stroke-width:0.204111"
       id="rect4319"
       width="1"
       height="0.5"
       x="-48.589287"
       y="62.028572"
       transform="rotate(-90)" />
    <rect
       style="fill:#999999;fill-opacity:1;stroke-width:0.204111"
       id="rect4319-6"
       width="1"
       height="0.5"
       x="-48.589287"
       y="61.42857"
       transform="rotate(-90)" />
    <rect
       style="fill:#999999;fill-opacity:1;stroke-width:0.204111"
       id="rect4319-6-1"
       width="1"
       height="0.5"
       x="-48.589287"
       y="62.628574"
       transform="rotate(-90)" />
    <rect
       style="fill:#ffffff;fill-opacity:1;stroke-width:0.288658"
       id="rect4319-6-6"
       width="1"
       height="1"
       x="-51.589287"
       y="56.92857"
       transform="rotate(-90)" />
    <rect
       style="fill:#ffffff;fill-opacity:1;stroke-width:0.288658"
       id="rect4319-6-6-2"
       width="1"
       height="1"
       x="-51.589287"
       y="59.528572"
       transform="rotate(-90)" />
    <g
       style="font-size:1.41111px;line-height:1.25;font-family:OCRA;-inkscape-font-specification:OCRA;fill:#ffffff;stroke-width:0.264583"
       id="text1499"
       aria-label="
BME/BMP280">
      <path
         id="path903"
         style="fill:#ffffff;stroke-width:0.264583"
         d="m 55.118572,50.189951 v -1.031877 h 0.391584 q 0.10848,0 0.187855,0.07937 0.07937,0.07937 0.07937,0.187854 v 0.04895 q 0,0.11774 -0.0926,0.199761 0.0926,0.08202 0.0926,0.199761 v 0.04895 q 0,0.10848 -0.07937,0.187855 -0.07937,0.07937 -0.187855,0.07937 z m 0.133615,-0.133615 h 0.257969 q 0.05424,0 0.09393,-0.03969 0.03969,-0.04101 0.03969,-0.09393 v -0.04895 q 0,-0.05424 -0.03969,-0.09393 -0.03969,-0.03969 -0.09393,-0.03969 h -0.257969 z m 0,-0.449793 h 0.257969 q 0.05424,0 0.09393,-0.03969 0.03969,-0.03969 0.03969,-0.0926 v -0.04895 q 0,-0.05292 -0.03969,-0.0926 -0.03969,-0.04101 -0.09393,-0.04101 h -0.257969 z" />
      <path
         id="path905"
         style="font-size:1.32292px;fill:#ffffff;fill-opacity:1;stroke-width:0.264583"
         d="m 56.074588,50.122482 v -0.964408 h 0.166688 l 0.162719,0.231511 0.161397,-0.231511 h 0.16801 v 0.964408 q 0,0.02778 -0.01984,0.04763 -0.01984,0.01984 -0.04763,0.01984 -0.02778,0 -0.04763,-0.01984 -0.01852,-0.01984 -0.01852,-0.04763 v -0.780523 l -0.129646,0.185209 v 0.0344 q 0,0.02778 -0.01984,0.04763 -0.01984,0.01984 -0.0463,0.01984 -0.02778,0 -0.04763,-0.01984 -0.01984,-0.01984 -0.01984,-0.04763 v -0.0344 l -0.128323,-0.182563 v 0.777877 q 0,0.02778 -0.01984,0.04763 -0.01984,0.01984 -0.04762,0.01984 -0.02778,0 -0.04763,-0.01984 -0.01852,-0.01984 -0.01852,-0.04763 z" />
      <path
         id="path907"
         style="font-size:1.32292px;fill:#ffffff;fill-opacity:1;stroke-width:0.264583"
         d="m 57.030605,50.189951 v -1.031877 h 0.591345 q 0.02778,0 0.04763,0.01984 0.01984,0.01984 0.01984,0.0463 0,0.02778 -0.01984,0.04762 -0.01984,0.01984 -0.04763,0.01984 h -0.457731 v 0.314855 h 0.195793 q 0.02646,0 0.0463,0.01984 0.01984,0.01984 0.01984,0.04762 0,0.02778 -0.01984,0.04763 -0.01984,0.01852 -0.0463,0.01852 h -0.195793 v 0.316178 h 0.457731 q 0.02778,0 0.04763,0.01984 0.01984,0.01984 0.01984,0.0463 0,0.02778 -0.01984,0.04763 -0.01984,0.01984 -0.04763,0.01984 z" />
      <path
         id="path909"
         style="font-size:1.32292px;fill:#ffffff;fill-opacity:1;stroke-width:0.264583"
         d="m 57.986621,50.122482 q 0,-0.0172 0.0079,-0.03307 l 0.5252,-0.898262 q 0.01984,-0.03307 0.05821,-0.03307 0.02778,0 0.04762,0.01984 0.01984,0.01984 0.01984,0.0463 0,0.01587 -0.0093,0.03439 l -0.5252,0.898263 q -0.01984,0.03307 -0.05821,0.03307 -0.02778,0 -0.04763,-0.01984 -0.01852,-0.01984 -0.01852,-0.04763 z" />
      <path
         id="path911"
         style="font-size:1.32292px;fill:#ffffff;fill-opacity:1;stroke-width:0.264583"
         d="m 58.942637,50.189951 v -1.031877 h 0.391585 q 0.108479,0 0.187854,0.07937 0.07937,0.07937 0.07937,0.187854 v 0.04895 q 0,0.11774 -0.0926,0.199761 0.0926,0.08202 0.0926,0.199761 v 0.04895 q 0,0.10848 -0.07937,0.187855 -0.07937,0.07937 -0.187854,0.07937 z m 0.133615,-0.133615 h 0.25797 q 0.05424,0 0.09393,-0.03969 0.03969,-0.04101 0.03969,-0.09393 v -0.04895 q 0,-0.05424 -0.03969,-0.09393 -0.03969,-0.03969 -0.09393,-0.03969 h -0.25797 z m 0,-0.449793 h 0.25797 q 0.05424,0 0.09393,-0.03969 0.03969,-0.03969 0.03969,-0.0926 v -0.04895 q 0,-0.05292 -0.03969,-0.0926 -0.03969,-0.04101 -0.09393,-0.04101 h -0.25797 z" />
      <path
         id="path913"
         style="font-size:1.32292px;fill:#ffffff;fill-opacity:1;stroke-width:0.264583"
         d="m 59.898654,50.122482 v -0.964408 h 0.166687 l 0.16272,0.231511 0.161396,-0.231511 h 0.168011 v 0.964408 q 0,0.02778 -0.01984,0.04763 -0.01984,0.01984 -0.04763,0.01984 -0.02778,0 -0.04762,-0.01984 -0.01852,-0.01984 -0.01852,-0.04763 v -0.780523 l -0.129646,0.185209 v 0.0344 q 0,0.02778 -0.01984,0.04763 -0.01984,0.01984 -0.0463,0.01984 -0.02778,0 -0.04762,-0.01984 -0.01984,-0.01984 -0.01984,-0.04763 v -0.0344 l -0.128323,-0.182563 v 0.777877 q 0,0.02778 -0.01984,0.04763 -0.01984,0.01984 -0.04763,0.01984 -0.02778,0 -0.04763,-0.01984 -0.01852,-0.01984 -0.01852,-0.04763 z" />
      <path
         id="path915"
         style="font-size:1.32292px;fill:#ffffff;fill-opacity:1;stroke-width:0.264583"
         d="m 60.85467,50.122482 v -0.964408 h 0.45773 q 0.08202,0 0.141553,0.05953 0.05953,0.05821 0.05953,0.140229 v 0.238126 q 0,0.08202 -0.05953,0.141552 -0.05953,0.05953 -0.141553,0.05953 h -0.324115 v 0.325438 q 0,0.02778 -0.01984,0.04763 -0.01984,0.01984 -0.04762,0.01984 -0.02778,0 -0.04763,-0.01984 -0.01852,-0.01984 -0.01852,-0.04763 z m 0.133615,-0.459053 H 61.3124 q 0.02646,0 0.0463,-0.01984 0.02117,-0.01984 0.02117,-0.04763 v -0.238126 q 0,-0.02646 -0.02117,-0.0463 -0.01984,-0.01984 -0.0463,-0.01984 h -0.324115 z" />
      <path
         id="path917"
         style="font-size:1.32292px;fill:#ffffff;fill-opacity:1;stroke-width:0.264583"
         d="m 61.810686,50.189951 v -0.449793 q 0,-0.05424 0.03969,-0.0926 0.03969,-0.03969 0.09393,-0.03969 h 0.391584 v -0.316178 h -0.459053 q -0.02778,0 -0.04763,-0.01984 -0.01852,-0.01984 -0.01852,-0.04762 0,-0.02646 0.01852,-0.0463 0.01984,-0.01984 0.04763,-0.01984 h 0.459053 q 0.05292,0 0.0926,0.03969 0.04101,0.03969 0.04101,0.09393 v 0.316178 q 0,0.05292 -0.03969,0.0926 -0.03969,0.03969 -0.09393,0.03969 h -0.391584 v 0.316178 h 0.45773 q 0.02778,0 0.04763,0.01984 0.01984,0.01984 0.01984,0.0463 0,0.02778 -0.01984,0.04763 -0.01984,0.01984 -0.04763,0.01984 z" />
      <path
         id="path919"
         style="font-size:1.32292px;fill:#ffffff;fill-opacity:1;stroke-width:0.264583"
         d="m 62.766703,50.056336 v -0.316178 q 0,-0.05424 0.03836,-0.09393 0.03969,-0.03969 0.09393,-0.03969 V 49.22422 q 0,-0.02778 0.01852,-0.0463 0.01852,-0.01984 0.0463,-0.01984 h 0.263261 q 0.02778,0 0.0463,0.01984 0.01852,0.01852 0.01852,0.0463 v 0.382323 q 0.05292,0 0.0926,0.04101 0.04101,0.03969 0.04101,0.0926 v 0.316178 q 0,0.05424 -0.04101,0.09393 -0.03969,0.03969 -0.0926,0.03969 h -0.392907 q -0.05424,0 -0.09393,-0.03969 -0.03836,-0.03969 -0.03836,-0.09393 z m 0.132292,0 h 0.392907 v -0.316178 h -0.392907 z m 0.132292,-0.449793 h 0.128323 v -0.314855 h -0.128323 z" />
      <path
         id="path921"
         style="font-size:1.32292px;fill:#ffffff;fill-opacity:1;stroke-width:0.264583"
         d="m 63.722719,50.056336 v -0.764648 q 0,-0.05424 0.03969,-0.09393 0.03969,-0.03969 0.09393,-0.03969 h 0.391584 q 0.05292,0 0.0926,0.03969 0.04101,0.03969 0.04101,0.09393 v 0.764648 q 0,0.05424 -0.04101,0.09393 -0.03969,0.03969 -0.0926,0.03969 h -0.391584 q -0.05424,0 -0.09393,-0.03969 -0.03969,-0.03969 -0.03969,-0.09393 z m 0.133615,0 h 0.391584 v -0.764648 h -0.391584 z" />
    </g>
    <g
       style="font-size:1.32292px;line-height:1.25;font-family:OCRA;-inkscape-font-specification:OCRA;stroke-width:0.264583"
       id="text1505"
       transform="rotate(-90)"
       aria-label="VIN">
      <path
         id="path924"
         style="font-size:1.32292px;fill:#ffffff;stroke-width:0.264583"
         d="m -53.461556,56.002954 v -0.239449 q 0,-0.02646 0.01852,-0.0463 0.01984,-0.01984 0.04763,-0.01984 0.02778,0 0.04762,0.01984 0.01984,0.01984 0.01984,0.0463 v 0.21299 l 0.195792,0.500064 0.195792,-0.500064 v -0.21299 q 0,-0.02646 0.01852,-0.0463 0.01984,-0.01984 0.04763,-0.01984 0.02778,0 0.04762,0.01984 0.01984,0.01984 0.01984,0.0463 v 0.238126 l -0.26723,0.685272 q -0.0172,0.04233 -0.06218,0.04233 -0.0463,0 -0.0635,-0.04233 z" />
      <path
         id="path926"
         style="font-size:1.32292px;fill:#ffffff;stroke-width:0.264583"
         d="m -52.50554,56.661768 q 0,-0.02646 0.01852,-0.0463 0.01984,-0.01984 0.04762,-0.01984 h 0.195793 v -0.764648 h -0.195793 q -0.02778,0 -0.04762,-0.01984 -0.01852,-0.01984 -0.01852,-0.04762 0,-0.02646 0.01852,-0.0463 0.01984,-0.01984 0.04762,-0.01984 h 0.5252 q 0.02778,0 0.04763,0.01984 0.01984,0.01984 0.01984,0.0463 0,0.02778 -0.01984,0.04762 -0.01984,0.01984 -0.04763,0.01984 h -0.195792 v 0.764648 h 0.195792 q 0.02778,0 0.04763,0.01984 0.01984,0.01984 0.01984,0.0463 0,0.02778 -0.01984,0.04762 -0.01984,0.01984 -0.04763,0.01984 h -0.5252 q -0.02778,0 -0.04762,-0.01984 -0.01852,-0.01984 -0.01852,-0.04762 z" />
      <path
         id="path928"
         style="font-size:1.32292px;fill:#ffffff;stroke-width:0.264583"
         d="m -51.549523,56.661768 v -0.964409 h 0.175948 l 0.349251,0.796398 v -0.730252 q 0,-0.02646 0.01852,-0.0463 0.01984,-0.01984 0.04763,-0.01984 0.02778,0 0.04762,0.01984 0.01984,0.01984 0.01984,0.0463 v 0.965732 h -0.177271 l -0.347928,-0.793752 v 0.726283 q 0,0.02778 -0.01984,0.04762 -0.01984,0.01984 -0.04762,0.01984 -0.02778,0 -0.04763,-0.01984 -0.01852,-0.01984 -0.01852,-0.04762 z" />
    </g>
    <g
       style="font-size:1.32292px;line-height:1.25;font-family:OCRA;-inkscape-font-specification:OCRA;stroke-width:0.264583"
       id="text1505-6"
       transform="rotate(-90)"
       aria-label="GND">
      <path
         id="path931"
         style="font-size:1.32292px;fill:#ffffff;stroke-width:0.264583"
         d="m -53.44148,59.028153 v -0.35851 q 0,-0.09128 0.05556,-0.162719 L -53.206,58.274091 q 0.05953,-0.07673 0.15875,-0.07673 h 0.197114 q 0.02778,0 0.04762,0.01984 0.01984,0.01984 0.01984,0.0463 0,0.02778 -0.01984,0.04763 -0.01984,0.01984 -0.04762,0.01984 h -0.197114 q -0.03307,0 -0.05292,0.02646 l -0.179917,0.230187 q -0.02778,0.03704 -0.02778,0.08202 v 0.35851 q 0,0.02778 0.01984,0.04762 0.01984,0.01984 0.0463,0.01984 h 0.257969 q 0.02646,0 0.0463,-0.01984 0.02117,-0.01984 0.02117,-0.04762 v -0.13626 h -0.130968 q -0.02778,0 -0.04763,-0.01852 -0.01852,-0.01984 -0.01852,-0.04763 0,-0.02778 0.01852,-0.04762 0.01984,-0.01984 0.04763,-0.01984 h 0.264583 v 0.269875 q 0,0.08202 -0.05953,0.141552 -0.05953,0.05953 -0.141552,0.05953 h -0.257969 q -0.08334,0 -0.141552,-0.05821 -0.05821,-0.05953 -0.05821,-0.142875 z" />
      <path
         id="path933"
         style="font-size:1.32292px;fill:#ffffff;stroke-width:0.264583"
         d="m -52.485466,59.161768 v -0.964406 h 0.175948 l 0.34925,0.796395 v -0.73025 q 0,-0.02646 0.01852,-0.0463 0.01984,-0.01984 0.04762,-0.01984 0.02778,0 0.04763,0.01984 0.01984,0.01984 0.01984,0.0463 v 0.96573 h -0.177271 l -0.347927,-0.79375 v 0.726281 q 0,0.02778 -0.01984,0.04762 -0.01984,0.01984 -0.04762,0.01984 -0.02778,0 -0.04763,-0.01984 -0.01852,-0.01984 -0.01852,-0.04762 z" />
      <path
         id="path935"
         style="font-size:1.32292px;fill:#ffffff;stroke-width:0.264583"
         d="m -51.529452,59.161768 q 0,-0.02646 0.01852,-0.0463 0.01984,-0.01984 0.04762,-0.01984 h 0.06482 v -0.764646 h -0.06482 q -0.02778,0 -0.04762,-0.01984 -0.01852,-0.01984 -0.01852,-0.04763 0,-0.02646 0.01852,-0.0463 0.01984,-0.01984 0.04762,-0.01984 h 0.246063 q 0.05821,0 0.105833,0.03175 0.04895,0.03175 0.07276,0.07937 l 0.134937,0.268552 q 0.03307,0.06879 0.03307,0.13626 0,0.06747 -0.03307,0.136261 l -0.133615,0.269875 q -0.02117,0.04762 -0.07144,0.07937 -0.04895,0.03043 -0.108479,0.03043 h -0.246063 q -0.02778,0 -0.04762,-0.01984 -0.01852,-0.01984 -0.01852,-0.04762 z m 0.264584,-0.06615 h 0.04762 q 0.04101,0 0.05821,-0.03704 l 0.136261,-0.268552 q 0.01852,-0.04498 0.01852,-0.07673 0,-0.03969 -0.01852,-0.07673 l -0.136261,-0.268552 q -0.0172,-0.03704 -0.05821,-0.03704 h -0.04762 z" />
    </g>
    <g
       style="font-size:1.32292px;line-height:1.25;font-family:OCRA;-inkscape-font-specification:OCRA;stroke-width:0.264583"
       id="text1505-6-3"
       transform="rotate(-90)"
       aria-label="SCL">
      <path
         id="path938"
         style="font-size:1.32292px;fill:#ffffff;stroke-width:0.264583"
         d="m -53.441479,61.550642 q 0,-0.02778 0.01852,-0.04763 0.01984,-0.01984 0.04763,-0.01984 0.02778,0 0.04762,0.01984 0.01984,0.01984 0.01984,0.04763 0,0.01852 0.01323,0.03175 0.01323,0.01323 0.03175,0.01323 h 0.329407 q 0.0172,0 0.0172,-0.0172 l -0.494772,-0.637648 q -0.03043,-0.04233 -0.03043,-0.0926 v -0.004 q 0,-0.05953 0.04366,-0.103188 0.04498,-0.04366 0.105834,-0.04366 h 0.329407 q 0.07276,0 0.125677,0.05292 0.05424,0.05292 0.05424,0.125677 0,0.02778 -0.01984,0.04762 -0.01984,0.01984 -0.04762,0.01984 -0.02778,0 -0.04763,-0.01984 -0.01852,-0.01984 -0.01852,-0.04762 0,-0.0172 -0.01455,-0.03043 -0.01323,-0.01455 -0.03175,-0.01455 h -0.329407 q -0.01588,0 -0.01588,0.01323 v 0.004 0.0053 l 0.492126,0.632355 q 0.03307,0.03969 0.03307,0.0926 -0.0026,0.06218 -0.0463,0.107156 -0.04233,0.04366 -0.104511,0.04366 h -0.329407 q -0.07276,0 -0.125677,-0.05292 -0.05292,-0.05292 -0.05292,-0.125678 z" />
      <path
         id="path940"
         style="font-size:1.32292px;fill:#ffffff;stroke-width:0.264583"
         d="m -52.485463,61.213298 q 0,-0.07012 0.03175,-0.136261 l 0.133615,-0.269876 q 0.02117,-0.04763 0.07012,-0.07805 0.05027,-0.03175 0.109802,-0.03175 h 0.246063 q 0.02778,0 0.04763,0.01984 0.01984,0.01984 0.01984,0.0463 0,0.02778 -0.01984,0.04762 -0.01984,0.01984 -0.04763,0.01984 h -0.246063 q -0.04101,0 -0.05821,0.03704 l -0.136261,0.268552 q -0.0172,0.03704 -0.0172,0.07673 0,0.03969 0.0172,0.07673 l 0.136261,0.268553 q 0.0172,0.03704 0.05821,0.03704 h 0.246063 q 0.02778,0 0.04763,0.01984 0.01984,0.01984 0.01984,0.0463 0,0.02778 -0.01984,0.04762 -0.01984,0.01984 -0.04763,0.01984 h -0.246063 q -0.05821,0 -0.107156,-0.03175 -0.04762,-0.03175 -0.07144,-0.07938 -0.0979,-0.186531 -0.134938,-0.268552 -0.03175,-0.06747 -0.03175,-0.136261 z" />
      <path
         id="path942"
         style="font-size:1.32292px;fill:#ffffff;stroke-width:0.264583"
         d="m -51.529446,61.729237 v -0.965732 q 0,-0.02646 0.01852,-0.0463 0.01984,-0.01984 0.04763,-0.01984 0.02778,0 0.04762,0.01984 0.01984,0.01984 0.01984,0.0463 v 0.832117 h 0.45773 q 0.02778,0 0.04763,0.01984 0.01984,0.01984 0.01984,0.0463 0,0.02778 -0.01984,0.04762 -0.01984,0.01984 -0.04763,0.01984 z" />
    </g>
    <g
       style="font-size:1.32292px;line-height:1.25;font-family:OCRA;-inkscape-font-specification:OCRA;stroke-width:0.264583"
       id="text1505-6-3-8"
       transform="rotate(-90)"
       aria-label="SDA">
      <path
         id="path945"
         style="font-size:1.32292px;fill:#ffffff;stroke-width:0.264583"
         d="m -53.441479,64.150645 q 0,-0.02778 0.01852,-0.04762 0.01984,-0.01984 0.04763,-0.01984 0.02778,0 0.04762,0.01984 0.01984,0.01984 0.01984,0.04762 0,0.01852 0.01323,0.03175 0.01323,0.01323 0.03175,0.01323 h 0.329407 q 0.0172,0 0.0172,-0.0172 l -0.494772,-0.637647 q -0.03043,-0.04233 -0.03043,-0.0926 v -0.004 q 0,-0.05953 0.04366,-0.103187 0.04498,-0.04366 0.105834,-0.04366 h 0.329407 q 0.07276,0 0.125677,0.05292 0.05424,0.05292 0.05424,0.125678 0,0.02778 -0.01984,0.04763 -0.01984,0.01984 -0.04762,0.01984 -0.02778,0 -0.04763,-0.01984 -0.01852,-0.01984 -0.01852,-0.04763 0,-0.0172 -0.01455,-0.03043 -0.01323,-0.01455 -0.03175,-0.01455 h -0.329407 q -0.01588,0 -0.01588,0.01323 v 0.004 0.0053 l 0.492126,0.632356 q 0.03307,0.03969 0.03307,0.0926 -0.0026,0.06218 -0.0463,0.107157 -0.04233,0.04366 -0.104511,0.04366 h -0.329407 q -0.07276,0 -0.125677,-0.05292 -0.05292,-0.05292 -0.05292,-0.125677 z" />
      <path
         id="path947"
         style="font-size:1.32292px;fill:#ffffff;stroke-width:0.264583"
         d="m -52.485463,64.26177 q 0,-0.02646 0.01852,-0.0463 0.01984,-0.01984 0.04763,-0.01984 h 0.06482 v -0.764648 h -0.06482 q -0.02778,0 -0.04763,-0.01984 -0.01852,-0.01984 -0.01852,-0.04763 0,-0.02646 0.01852,-0.0463 0.01984,-0.01984 0.04763,-0.01984 h 0.246063 q 0.05821,0 0.105834,0.03175 0.04895,0.03175 0.07276,0.07938 l 0.134937,0.268552 q 0.03307,0.06879 0.03307,0.136261 0,0.06747 -0.03307,0.136261 l -0.133615,0.269876 q -0.02117,0.04762 -0.07144,0.07937 -0.04895,0.03043 -0.10848,0.03043 h -0.246063 q -0.02778,0 -0.04763,-0.01984 -0.01852,-0.01984 -0.01852,-0.04762 z m 0.264584,-0.06615 h 0.04762 q 0.04101,0 0.05821,-0.03704 l 0.136261,-0.268553 q 0.01852,-0.04498 0.01852,-0.07673 0,-0.03969 -0.01852,-0.07673 l -0.136261,-0.268553 q -0.0172,-0.03704 -0.05821,-0.03704 h -0.04762 z" />
      <path
         id="path949"
         style="font-size:1.32292px;fill:#ffffff;stroke-width:0.264583"
         d="m -51.533415,64.26177 0.268553,-0.916784 q 0.0066,-0.02117 0.02381,-0.03439 0.0172,-0.01323 0.03969,-0.01323 0.02249,0 0.04101,0.01323 0.01852,0.01323 0.02381,0.03439 l 0.26723,0.916784 q 0,0.02778 -0.02117,0.04762 -0.01984,0.01984 -0.04763,0.01984 -0.02249,0 -0.03969,-0.01323 -0.0172,-0.01323 -0.02381,-0.0344 l -0.05159,-0.177272 h -0.295011 l -0.05159,0.177272 q -0.0066,0.02117 -0.02514,0.0344 -0.0172,0.01323 -0.03969,0.01323 -0.02778,0 -0.04895,-0.01984 -0.01984,-0.01984 -0.01984,-0.04762 z m 0.224896,-0.291042 h 0.215636 l -0.108479,-0.367772 z" />
    </g>
  </g>
</svg>
